# xmcd
#
# Track frame offsets:
#	150
#	26382
#	40371
#	57680
#	69680
#	85066
#	100195
#	113741
#	127926
#	143406
#	157473
#	184473
#	200847
#	214209
#	225314
#	238723
#	250525
#	263170
#	278320
#	292461
#	305675
#	322299
#	336393
#
# Disc length: 4708 seconds
#
# Revision: 1
# Processed by: cddbd v1.5.2PL0 Copyright (c) Steve Scherf et al.
# Submitted via: audiograbber 1.82.01
#
DISCID=67126217
DTITLE=Jorge e Mateus - Pelo amor de Deus
DYEAR=1900
DGENRE=
TTITLE0=Tem nada a ver/te cuida coraçao
TTITLE1=Fogueira
TTITLE2=Amor nao e jogo de azar
TTITLE3=Paixao goiana
TTITLE4=Castigo
TTITLE5=Morena proibida
TTITLE6=Querendo te amar
TTITLE7=de tanto te querer
TTITLE8=Pode chorar
TTITLE9=Ta faltando amor
TTITLE10=Pagodes
TTITLE11=Me leva
TTITLE12=Traz ela de volta pra mim
TTITLE13=Espinho na cama/Avião das nove
TTITLE14=Te amo tanto que nem sei
TTITLE15=Meu desespero
TTITLE16=Goiânia me espera
TTITLE17=Do brasil à Argentina (Tô indo te buscar)
TTITLE18=Cavaco do pau
TTITLE19=Bônus - Vou fazer pirraça
TTITLE20=Querendo te amar
TTITLE21=De tanto te querer
TTITLE22=Vou fazer pirraça
EXTD=dois caipira igual aos outros fazendo umas músicas do mesmo ritmo que os o
EXTD=utros mas que muda o galã que canta.
EXTT0=
EXTT1=
EXTT2=
EXTT3=
EXTT4=
EXTT5=
EXTT6=
EXTT7=
EXTT8=
EXTT9=
EXTT10=
EXTT11=
EXTT12=
EXTT13=
EXTT14=
EXTT15=
EXTT16=
EXTT17=
EXTT18=
EXTT19=
EXTT20=
EXTT21=
EXTT22=
PLAYORDER=
